<svg width="161" height="43" viewBox="0 0 161 43" fill="none" xmlns="http://www.w3.org/2000/svg">
<g clip-path="url(#clip0)">
<path d="M29.2227 22.0077C29.2227 17.2448 32.7628 13.8687 37.5735 13.8687C42.3846 13.8687 45.8946 17.2448 45.8946 22.0077C45.8946 26.7709 42.3846 30.1775 37.5735 30.1775C32.7628 30.1775 29.2227 26.7709 29.2227 22.0077ZM42.9593 22.0077C42.9593 18.6015 40.6599 16.4007 37.5735 16.4007C34.4875 16.4007 32.1575 18.6015 32.1575 22.0077C32.1575 25.4142 34.4875 27.6451 37.5735 27.6451C40.6599 27.6451 42.9593 25.4142 42.9593 22.0077Z" fill="#4C4C4C"/>
<path d="M75.939 20.8019V29.9965H73.0342V21.1335C73.0342 17.9984 71.5214 16.4611 68.8892 16.4611C65.9844 16.4611 64.0781 18.3 64.0781 21.7666V29.9965H61.1734V21.1335C61.1734 17.9984 59.6605 16.4611 57.0279 16.4611C54.1232 16.4611 52.2172 18.3 52.2172 21.7666V29.9965H49.3125V14.0192H52.0959V16.4007C53.2458 14.7729 55.2124 13.8687 57.6332 13.8687C60.0841 13.8687 62.1416 14.8333 63.2007 16.8227C64.4109 15.0139 66.65 13.8687 69.3731 13.8687C73.2762 13.8687 75.939 16.0991 75.939 20.8019Z" fill="#4C4C4C"/>
<path d="M97.3027 22.0077C97.3027 26.9215 93.8835 30.1775 89.1938 30.1775C86.9245 30.1775 84.9273 29.3033 83.5961 27.585V35.845H80.6914V14.0192H83.4748V16.5516C84.7762 14.7729 86.8337 13.8687 89.1938 13.8687C93.8835 13.8687 97.3027 17.1243 97.3027 22.0077ZM94.3678 22.0077C94.3678 18.6315 92.0378 16.4007 88.9514 16.4007C85.8956 16.4007 83.5656 18.6315 83.5656 22.0077C83.5656 25.4142 85.8956 27.6451 88.9514 27.6451C92.0378 27.6451 94.3678 25.4142 94.3678 22.0077Z" fill="#4C4C4C"/>
<path d="M117.33 22.0077C117.33 26.9215 113.911 30.1775 109.221 30.1775C106.952 30.1775 104.955 29.3033 103.623 27.585V35.845H100.719V14.0192H103.502V16.5516C104.804 14.7729 106.861 13.8687 109.221 13.8687C113.911 13.8687 117.33 17.1243 117.33 22.0077ZM114.395 22.0077C114.395 18.6315 112.065 16.4007 108.979 16.4007C105.923 16.4007 103.593 18.6315 103.593 22.0077C103.593 25.4142 105.923 27.6451 108.979 27.6451C112.065 27.6451 114.395 25.4142 114.395 22.0077Z" fill="#4C4C4C"/>
<path d="M119.27 22.0077C119.27 17.2448 122.81 13.8687 127.62 13.8687C132.431 13.8687 135.941 17.2448 135.941 22.0077C135.941 26.7709 132.431 30.1775 127.62 30.1775C122.81 30.1775 119.27 26.7709 119.27 22.0077ZM133.006 22.0077C133.006 18.6015 130.707 16.4007 127.62 16.4007C124.534 16.4007 122.204 18.6015 122.204 22.0077C122.204 25.4142 124.534 27.6451 127.62 27.6451C130.707 27.6451 133.006 25.4142 133.006 22.0077Z" fill="#4C4C4C"/>
<path d="M147.983 13.8687V16.6722C147.74 16.6417 147.529 16.6417 147.317 16.6417C144.201 16.6417 142.264 18.541 142.264 22.0381V29.9965H139.359V14.0192H142.143V16.7022C143.172 14.8333 145.169 13.8687 147.983 13.8687Z" fill="#4C4C4C"/>
<path d="M160.629 29.0622C159.751 29.8158 158.42 30.1778 157.119 30.1778C153.882 30.1778 152.036 28.399 152.036 25.1735V16.401H149.312V14.0195H152.036V10.5225H154.941V14.0195H159.54V16.401H154.941V25.0529C154.941 26.7712 155.848 27.7359 157.452 27.7359C158.299 27.7359 159.116 27.4644 159.721 26.9823L160.629 29.0622Z" fill="#4C4C4C"/>
<circle cx="14.93" cy="3.54" r="1.52" fill="#008DFC"/>
<circle cx="32.48" cy="5.53" r="1.52" fill="#D30056"/>
<circle cx="26.96" cy="3.08" r="1.52" fill="#FF6300"/>
<circle cx="20.91" cy="2.41" r="1.52" fill="#FB9300"/>
<circle cx="28.23" cy="10.09" r="1.52" fill="#F10058"/>
<circle cx="16.43" cy="9.52" r="1.52" fill="#FFB300"/>
<circle cx="22.4" cy="8.45" r="1.52" fill="#FF5551"/>
<path d="M35.87 37.2V37.44C32.13 40.81 27.18 42.86 21.75 42.86C16.19 42.86 11.13 40.71 7.37 37.2C3.25 33.38 0.67 27.91 0.67 21.86C0.67 15.74 3.3 10.24 7.48 6.41L9.54 8.64C5.96 11.92 3.72 16.63 3.72 21.86C3.72 27.03 5.91 31.69 9.43 34.97C12.65 37.98 16.98 39.82 21.75 39.82C26.44 39.82 30.72 38.03 33.93 35.1L35.87 37.2Z" fill="url(#grad1)"/>
<path d="M31.89 32.84C29.22 35.28 25.66 36.77 21.75 36.77C17.77 36.77 14.15 35.23 11.46 32.71C8.55 29.98 6.73 26.11 6.73 21.81C6.73 17.46 8.6 13.55 11.58 10.81L13.64 13.04C11.26 15.22 9.77 18.34 9.77 21.81C9.77 25.23 11.21 28.31 13.52 30.48C15.67 32.5 18.56 33.74 21.75 33.74C24.86 33.74 27.7 32.56 29.83 30.61L31.89 32.84Z" fill="url(#grad2)"/>
<path d="M27.67 28.36C26.1 29.79 24.01 30.67 21.71 30.67C19.34 30.67 17.19 29.74 15.6 28.23C13.91 26.62 12.86 24.36 12.86 21.86C12.86 19.3 13.96 16.99 15.71 15.38C17.29 13.93 19.39 13.05 21.71 13.05C23.95 13.05 25.99 13.88 27.55 15.26L25.52 17.46C24.5 16.58 23.17 16.04 21.71 16.04C20.18 16.04 18.78 16.62 17.74 17.58C16.59 18.65 15.86 20.17 15.86 21.86C15.86 23.49 16.54 24.97 17.63 26.03C18.68 27.05 20.12 27.68 21.71 27.68C23.22 27.68 24.6 27.1 25.64 26.16L27.67 28.36Z" fill="url(#grad3)"/>
</g>
<defs>
<linearGradient id="grad1" x1="0" y1="21" x2="36" y2="21" gradientUnits="userSpaceOnUse">
<stop stop-color="#2FA84F"/>
<stop offset="1" stop-color="#1B8A3A"/>
</linearGradient>
<linearGradient id="grad2" x1="6" y1="21" x2="32" y2="21" gradientUnits="userSpaceOnUse">
<stop stop-color="#2FA84F"/>
<stop offset="1" stop-color="#1B8A3A"/>
</linearGradient>
<linearGradient id="grad3" x1="12" y1="21" x2="28" y2="21" gradientUnits="userSpaceOnUse">
<stop stop-color="#2FA84F"/>
<stop offset="1" stop-color="#1B8A3A"/>
</linearGradient>
<clipPath id="clip0">
<rect width="160" height="42" fill="white" transform="translate(0.63 0.86)"/>
</clipPath>
</defs>
</svg>
