<svg width="36" height="43" viewBox="0 0 36 43" fill="none" xmlns="http://www.w3.org/2000/svg">
<circle cx="14.3" cy="2.68" r="1.52" fill="#008DFC"/>
<circle cx="31.85" cy="4.67" r="1.52" fill="#D30056"/>
<circle cx="26.33" cy="2.22" r="1.52" fill="#FF6300"/>
<circle cx="20.28" cy="1.55" r="1.52" fill="#FB9300"/>
<circle cx="27.6" cy="9.23" r="1.52" fill="#F10058"/>
<circle cx="15.8" cy="8.66" r="1.52" fill="#FFB300"/>
<circle cx="21.77" cy="7.59" r="1.52" fill="#FF5551"/>
<path d="M35.24 36.34V36.58C31.5 39.95 26.55 42 21.12 42C15.56 42 10.5 39.85 6.74 36.34C2.62 32.52 0.04 27.05 0.04 21C0.04 14.88 2.67 9.38 6.85 5.55L8.91 7.78C5.33 11.06 3.09 15.77 3.09 21C3.09 26.17 5.28 30.83 8.8 34.11C12.02 37.12 16.35 38.96 21.12 38.96C25.81 38.96 30.09 37.17 33.3 34.24L35.24 36.34Z" fill="url(#g1)"/>
<path d="M31.26 31.98C28.59 34.42 25.03 35.91 21.12 35.91C17.14 35.91 13.52 34.37 10.83 31.85C7.92 29.12 6.1 25.25 6.1 20.95C6.1 16.6 7.97 12.69 10.95 9.95L13.01 12.18C10.63 14.36 9.14 17.48 9.14 20.95C9.14 24.37 10.58 27.45 12.89 29.62C15.04 31.64 17.93 32.88 21.12 32.88C24.23 32.88 27.07 31.7 29.2 29.75L31.26 31.98Z" fill="url(#g2)"/>
<path d="M27.04 27.5C25.47 28.93 23.38 29.81 21.08 29.81C18.71 29.81 16.56 28.88 14.97 27.37C13.28 25.76 12.23 23.5 12.23 21C12.23 18.44 13.33 16.13 15.08 14.52C16.66 13.07 18.76 12.19 21.08 12.19C23.32 12.19 25.36 13.02 26.92 14.4L24.89 16.6C23.87 15.72 22.54 15.18 21.08 15.18C19.55 15.18 18.15 15.76 17.11 16.72C15.96 17.79 15.23 19.31 15.23 21C15.23 22.63 15.91 24.11 17 25.17C18.05 26.19 19.49 26.82 21.08 26.82C22.59 26.82 23.97 26.24 25.01 25.3L27.04 27.5Z" fill="url(#g3)"/>
<defs>
<linearGradient id="g1" x1="0" y1="21" x2="36" y2="21" gradientUnits="userSpaceOnUse">
<stop stop-color="#2FA84F"/>
<stop offset="1" stop-color="#1B8A3A"/>
</linearGradient>
<linearGradient id="g2" x1="6" y1="21" x2="32" y2="21" gradientUnits="userSpaceOnUse">
<stop stop-color="#2FA84F"/>
<stop offset="1" stop-color="#1B8A3A"/>
</linearGradient>
<linearGradient id="g3" x1="12" y1="21" x2="28" y2="21" gradientUnits="userSpaceOnUse">
<stop stop-color="#2FA84F"/>
<stop offset="1" stop-color="#1B8A3A"/>
</linearGradient>
</defs>
</svg>
